<?xml version="1.0" encoding="UTF-8"?>
<svg id="Layer_1" data-name="Layer 1" xmlns="http://www.w3.org/2000/svg" viewBox="0 0 140 140">
  <defs>
    <style>
      .cls-1 {
        fill: #f0efef;
      }

      .cls-1, .cls-2 {
        stroke-width: 0px;
      }

      .cls-2 {
        fill: #201a56;
      }
    </style>
  </defs>
  <rect class="cls-1" x="8.44" y="8.44" width="123.11" height="123.11" rx="12.44" ry="12.44"/>
  <g>
    <path class="cls-2" d="M39.09,31c-5.98,0-9.9,3.93-9.9,9.09s3.8,9.09,9.67,9.09h.11c6.1,0,9.9-4.04,9.9-9.09-.11-5.17-3.8-9.09-9.78-9.09h0ZM39.09,31"/>
    <rect class="cls-2" x="30.23" y="56.37" width="17.49" height="52.63"/>
    <path class="cls-2" d="M90.66,55.13c-9.44,0-15.77,8.87-15.77,8.87v-7.63h-17.5v52.63h17.49v-29.39c0-1.57.11-3.14.58-4.27,1.26-3.14,4.14-6.4,8.98-6.4,6.33,0,8.86,4.83,8.86,11.9v28.16h17.49v-30.18c0-16.17-8.63-23.69-20.14-23.69h0ZM90.66,55.13"/>
  </g>
</svg>