<?xml version="1.0" encoding="UTF-8"?>
<svg id="Layer_1" data-name="Layer 1" xmlns="http://www.w3.org/2000/svg" viewBox="0 0 140 140">
  <defs>
    <style>
      .cls-1 {
        fill: #f0efef;
      }

      .cls-1, .cls-2 {
        stroke-width: 0px;
      }

      .cls-2 {
        fill: #201a56;
      }
    </style>
  </defs>
  <rect class="cls-1" x="8.44" y="8.44" width="123.11" height="123.11" rx="12.44" ry="12.44"/>
  <path class="cls-2" d="M106.34,29.15H33.66c-2.49,0-4.51,2.02-4.51,4.51v72.68c0,2.49,2.02,4.51,4.51,4.51h39.13v-31.59h-10.61v-12.37h10.61v-9.1c0-10.55,6.44-16.3,15.86-16.3,4.51,0,8.38.34,9.51.49v11.03h-6.49c-5.12,0-6.11,2.43-6.11,6.01v7.88h12.25l-1.6,12.37h-10.65v31.59h20.78c2.49,0,4.51-2.02,4.51-4.51h0V33.66c0-2.49-2.02-4.51-4.51-4.51h0ZM106.34,29.15"/>
</svg>